<?xml version="1.0" standalone="no"?>
<!DOCTYPE svg PUBLIC "-//W3C//DTD SVG 20010904//EN"
 "http://www.w3.org/TR/2001/REC-SVG-20010904/DTD/svg10.dtd">
<svg version="1.0" xmlns="http://www.w3.org/2000/svg"
 width="1000.000000pt" height="1000.000000pt" viewBox="0 0 1000.000000 1000.000000"
 preserveAspectRatio="xMidYMid meet">
<metadata>
Created by potrace 1.14, written by Peter Selinger 2001-2017
</metadata>
<g transform="translate(0.000000,1000.000000) scale(0.100000,-0.100000)"
fill="#000000" stroke="none">
<path d="M0 5000 l0 -5000 643 0 644 0 7 141 c3 78 13 291 21 473 19 413 24
486 86 1096 61 611 97 901 139 1115 18 91 50 229 55 234 3 2 13 -3 23 -12 24
-22 239 -123 382 -180 142 -57 273 -90 455 -117 77 -11 208 -35 290 -52 119
-25 175 -32 272 -32 85 -1 126 3 134 12 19 18 56 15 79 -8 18 -18 20 -29 15
-88 -3 -37 -10 -89 -15 -117 -19 -98 -39 -242 -50 -345 -6 -58 -15 -141 -20
-185 -5 -44 -12 -118 -15 -165 -4 -47 -11 -132 -17 -190 -16 -168 -26 -355
-27 -500 -1 -74 -5 -161 -11 -194 -14 -88 -24 -529 -15 -718 l7 -168 2034 0
2034 0 0 68 c0 37 -4 125 -10 197 -5 72 -14 200 -20 285 -12 183 -25 302 -45
425 -8 50 -19 160 -25 245 -6 85 -19 205 -30 265 -11 61 -20 142 -20 180 0 39
-7 97 -15 130 -8 33 -14 77 -15 98 0 55 -67 444 -91 536 -11 42 -29 100 -40
128 -15 42 -16 58 -8 77 17 36 43 43 118 33 92 -13 445 -2 570 18 118 19 458
101 577 141 102 34 244 100 244 113 0 6 4 11 8 11 11 0 42 -127 36 -144 -3 -7
11 -111 30 -232 19 -120 37 -237 40 -259 3 -22 12 -85 20 -140 13 -89 18 -126
32 -255 2 -19 10 -83 18 -142 9 -58 27 -234 41 -390 14 -155 32 -350 40 -433
25 -259 54 -634 61 -797 l6 -158 664 0 664 0 0 5000 0 5000 -5000 0 -5000 0 0
-5000z m4823 4151 c15 -6 84 -6 178 0 260 15 709 -24 929 -82 122 -32 245 -74
274 -94 18 -12 45 -25 60 -29 15 -4 46 -24 69 -45 23 -20 74 -60 112 -87 39
-26 77 -58 85 -69 8 -11 31 -38 50 -60 39 -43 90 -126 90 -146 0 -7 8 -22 18
-33 22 -24 104 -260 125 -356 7 -32 28 -226 32 -305 2 -33 11 -118 20 -190 17
-131 16 -194 -5 -444 -5 -63 -7 -118 -4 -122 12 -19 -29 -374 -57 -497 -10
-45 -19 -97 -19 -114 0 -17 -4 -47 -9 -67 -5 -20 -15 -61 -21 -92 -9 -46 -18
-63 -53 -96 -23 -21 -59 -66 -79 -99 -44 -72 -180 -219 -257 -279 -31 -23 -99
-68 -151 -100 -52 -32 -106 -68 -119 -81 -14 -14 -55 -33 -95 -45 -39 -11 -93
-29 -121 -39 -27 -11 -79 -25 -115 -31 -60 -11 -69 -17 -120 -69 -30 -32 -71
-69 -90 -83 -56 -41 -248 -122 -325 -138 -139 -28 -361 -10 -585 47 -120 31
-217 79 -300 149 -35 30 -68 55 -72 55 -4 0 -29 20 -56 43 -38 34 -68 49 -133
69 -101 30 -199 51 -256 54 -42 2 -159 35 -199 57 -126 68 -302 216 -359 302
-51 78 -97 173 -90 185 4 7 0 30 -8 53 -19 53 -30 109 -32 167 -1 25 -8 122
-14 215 -20 278 -26 437 -19 490 4 28 12 190 18 360 5 171 16 355 24 410 30
216 43 270 134 549 40 121 139 262 297 422 78 78 151 127 220 145 17 4 67 22
113 38 115 42 292 67 552 77 79 3 146 7 149 10 8 8 190 4 214 -5z m-358 -5987
c18 -19 25 -38 25 -65 0 -44 -18 -68 -250 -324 -209 -232 -334 -388 -458 -572
l-43 -63 43 -47 c152 -170 447 -470 720 -734 50 -48 58 -61 58 -93 0 -51 -44
-96 -94 -96 -27 0 -49 11 -98 52 -139 114 -759 752 -809 833 -12 19 -19 49
-19 80 0 65 33 121 203 348 137 183 165 216 386 462 238 264 217 245 267 245
36 0 50 -5 69 -26z m1017 -15 c11 -6 26 -26 34 -46 17 -39 35 23 -158 -528
-139 -400 -206 -600 -315 -950 -58 -187 -110 -355 -116 -373 -27 -83 -111
-110 -168 -53 -17 18 -29 40 -29 56 0 15 24 104 54 198 30 95 89 281 130 413
67 215 239 720 377 1109 55 155 77 185 135 185 20 0 44 -5 56 -11z m400 -61
c110 -86 771 -763 825 -845 26 -39 19 -116 -17 -180 -81 -142 -285 -403 -543
-692 -254 -285 -228 -261 -281 -261 -37 0 -48 5 -70 31 -16 19 -26 43 -26 63
0 38 31 78 269 341 163 180 333 392 431 538 l52 77 -65 73 c-114 127 -387 408
-516 532 -253 241 -241 227 -241 273 0 33 6 45 31 66 46 39 86 35 151 -16z"/>
<path d="M4312 8639 c-69 -14 -122 -103 -106 -176 5 -21 9 -544 9 -1163 1
-1026 2 -1128 17 -1162 30 -68 113 -97 178 -63 51 26 60 58 60 212 0 87 7 184
19 263 11 69 24 159 29 202 19 147 88 243 231 316 164 85 292 105 386 61 107
-50 151 -156 200 -478 14 -91 36 -233 50 -316 15 -82 28 -165 31 -184 3 -21
19 -48 39 -68 76 -76 205 -20 205 90 0 19 -11 94 -25 168 -13 74 -34 199 -45
279 -54 376 -105 525 -220 641 -124 125 -303 167 -501 118 -101 -25 -247 -92
-335 -153 l-64 -45 0 667 c0 411 -4 681 -10 703 -18 65 -81 103 -148 88z"/>
</g>
</svg>
